<svg width="42" height="42" viewBox="0 0 42 42" fill="none" xmlns="http://www.w3.org/2000/svg">
<path d="M3.5 21H38.5" stroke="#F8F8F8" stroke-width="2" stroke-linecap="round" stroke-linejoin="round"/>
<path d="M35 21V35C35 35.9283 34.6313 36.8185 33.9749 37.4749C33.3185 38.1313 32.4283 38.5 31.5 38.5H10.5C9.57174 38.5 8.6815 38.1313 8.02513 37.4749C7.36875 36.8185 7 35.9283 7 35V21" stroke="#F8F8F8" stroke-width="2" stroke-linecap="round" stroke-linejoin="round"/>
<path d="M7 14L35 7" stroke="#F8F8F8" stroke-width="2" stroke-linecap="round" stroke-linejoin="round"/>
<path d="M15.5051 11.865L14.7176 8.69751C14.6047 8.25167 14.5809 7.78796 14.6474 7.33289C14.7138 6.87782 14.8694 6.44032 15.105 6.04539C15.3407 5.65045 15.6519 5.30584 16.0208 5.03124C16.3897 4.75663 16.8091 4.55743 17.2551 4.44501L20.6501 3.60501C21.0971 3.49246 21.5619 3.46932 22.0179 3.53693C22.4739 3.60453 22.912 3.76154 23.3072 3.99895C23.7023 4.23636 24.0467 4.54948 24.3204 4.92034C24.5942 5.2912 24.7921 5.71249 24.9026 6.16001L25.6901 9.31001" stroke="#F8F8F8" stroke-width="2" stroke-linecap="round" stroke-linejoin="round"/>
</svg>
