<svg width="42" height="42" viewBox="0 0 42 42" fill="none" xmlns="http://www.w3.org/2000/svg">
<path d="M3.5 35V21C3.5 20.0717 3.86875 19.1815 4.52513 18.5251C5.1815 17.8687 6.07174 17.5 7 17.5H35C35.9283 17.5 36.8185 17.8687 37.4749 18.5251C38.1313 19.1815 38.5 20.0717 38.5 21V35" stroke="black" stroke-width="2" stroke-linecap="round" stroke-linejoin="round"/>
<path d="M7 17.5V10.5C7 9.57174 7.36875 8.6815 8.02513 8.02513C8.6815 7.36875 9.57174 7 10.5 7H31.5C32.4283 7 33.3185 7.36875 33.9749 8.02513C34.6313 8.6815 35 9.57174 35 10.5V17.5" stroke="black" stroke-width="2" stroke-linecap="round" stroke-linejoin="round"/>
<path d="M21 7V17.5" stroke="black" stroke-width="2" stroke-linecap="round" stroke-linejoin="round"/>
<path d="M3.5 31.5H38.5" stroke="black" stroke-width="2" stroke-linecap="round" stroke-linejoin="round"/>
</svg>
