<svg width="42" height="42" viewBox="0 0 42 42" fill="none" xmlns="http://www.w3.org/2000/svg">
<path d="M12.25 36.75H29.75" stroke="black" stroke-width="2" stroke-linecap="round" stroke-linejoin="round"/>
<path d="M21 36.75C25.1772 36.75 29.1832 35.0906 32.1369 32.1369C35.0906 29.1832 36.75 25.1772 36.75 21H5.25C5.25 25.1772 6.90937 29.1832 9.86307 32.1369C12.8168 35.0906 16.8228 36.75 21 36.75Z" stroke="black" stroke-width="2" stroke-linecap="round" stroke-linejoin="round"/>
<path d="M19.9151 21C18.8552 21.0099 17.8308 20.6187 17.0473 19.9048C16.2638 19.191 15.7792 18.2074 15.6906 17.1512C15.602 16.095 15.9161 15.0443 16.5697 14.21C17.2234 13.3756 18.1683 12.8193 19.2151 12.6525C19.0475 11.9109 19.0843 11.1377 19.3217 10.4154C19.5591 9.69314 19.9881 9.04882 20.5629 8.55122C21.1378 8.05362 21.8369 7.72139 22.5858 7.58997C23.3346 7.45855 24.1051 7.53287 24.8151 7.80501C25.1259 7.31564 25.5347 6.89593 26.0157 6.57231C26.4968 6.24868 27.0396 6.02814 27.61 5.92457C28.1804 5.82101 28.7661 5.83666 29.3302 5.97055C29.8943 6.10443 30.4245 6.35365 30.8876 6.70251C31.6953 6.06765 32.7077 5.75087 33.7333 5.8121C34.7588 5.87333 35.7263 6.30832 36.4528 7.03478C37.1792 7.76124 37.6142 8.72877 37.6755 9.75431C37.7367 10.7799 37.4199 11.7923 36.7851 12.6C37.1802 13.1249 37.4467 13.7351 37.5631 14.3817C37.6796 15.0283 37.6427 15.6932 37.4555 16.323C37.2683 16.9527 36.9359 17.5298 36.4851 18.0077C36.0344 18.4857 35.4778 18.8512 34.8601 19.075C35.0197 19.7049 35.0377 20.3624 34.9126 21" stroke="black" stroke-width="2" stroke-linecap="round" stroke-linejoin="round"/>
<path d="M22.75 21L29.75 14" stroke="black" stroke-width="2" stroke-linecap="round" stroke-linejoin="round"/>
<path d="M19.075 12.6875C18.1151 11.6642 16.8692 10.9538 15.4997 10.649C14.1302 10.3441 12.7006 10.4589 11.3972 10.9783C10.0939 11.4977 8.9773 12.3978 8.19294 13.5611C7.40858 14.7244 6.99286 16.097 6.99997 17.5C6.99997 18.7775 7.34997 19.9675 7.94497 21" stroke="black" stroke-width="2" stroke-linecap="round" stroke-linejoin="round"/>
</svg>
